<svg xmlns="http://www.w3.org/2000/svg" viewBox="0 0 128 128"><rect width="128" height="128" rx="28" fill="#fff8e8"/><path d="M23 72h82l-8 27H31z" fill="#71503b"/><ellipse cx="64" cy="71" rx="42" ry="18" fill="#fff0d3" stroke="#c89562" stroke-width="3"/><g fill="#c99a42"><ellipse cx="31" cy="61" rx="3.8" ry="2"/><ellipse cx="40" cy="61" rx="3.8" ry="2"/><ellipse cx="49" cy="61" rx="3.8" ry="2"/><ellipse cx="58" cy="61" rx="3.8" ry="2"/><ellipse cx="67" cy="61" rx="3.8" ry="2"/><ellipse cx="76" cy="61" rx="3.8" ry="2"/><ellipse cx="85" cy="61" rx="3.8" ry="2"/><ellipse cx="94" cy="61" rx="3.8" ry="2"/><ellipse cx="31" cy="68" rx="3.8" ry="2"/><ellipse cx="40" cy="68" rx="3.8" ry="2"/><ellipse cx="49" cy="68" rx="3.8" ry="2"/><ellipse cx="58" cy="68" rx="3.8" ry="2"/><ellipse cx="67" cy="68" rx="3.8" ry="2"/><ellipse cx="76" cy="68" rx="3.8" ry="2"/><ellipse cx="85" cy="68" rx="3.8" ry="2"/><ellipse cx="94" cy="68" rx="3.8" ry="2"/><ellipse cx="31" cy="75" rx="3.8" ry="2"/><ellipse cx="40" cy="75" rx="3.8" ry="2"/><ellipse cx="49" cy="75" rx="3.8" ry="2"/><ellipse cx="58" cy="75" rx="3.8" ry="2"/><ellipse cx="67" cy="75" rx="3.8" ry="2"/><ellipse cx="76" cy="75" rx="3.8" ry="2"/><ellipse cx="85" cy="75" rx="3.8" ry="2"/><ellipse cx="94" cy="75" rx="3.8" ry="2"/><ellipse cx="31" cy="82" rx="3.8" ry="2"/><ellipse cx="40" cy="82" rx="3.8" ry="2"/><ellipse cx="49" cy="82" rx="3.8" ry="2"/><ellipse cx="58" cy="82" rx="3.8" ry="2"/></g></svg>